<svg width="22" height="30" viewBox="0 0 22 30" fill="none" xmlns="http://www.w3.org/2000/svg">
<path d="M11.0001 0C5.0092 0 0.135254 4.87394 0.135254 10.8648C0.135254 18.2996 9.85824 29.2144 10.2722 29.6754C10.661 30.1085 11.3399 30.1078 11.728 29.6754C12.142 29.2144 21.865 18.2996 21.865 10.8648C21.8649 4.87394 16.991 0 11.0001 0ZM11.0001 16.3312C7.98594 16.3312 5.53379 13.879 5.53379 10.8648C5.53379 7.85062 7.986 5.39848 11.0001 5.39848C14.0142 5.39848 16.4664 7.85068 16.4664 10.8649C16.4664 13.879 14.0142 16.3312 11.0001 16.3312Z" fill="black"/>
</svg>
